Coordinates
version=1
nRows=10
nColumns=22
inDegrees=yes

Units are S.I. units (second, meters, Newtons, ...)
If the header above contains a line with 'inDegrees', this indicates whether rotational values are in degrees (yes) or radians (no).

endheader
time	pelvis_tilt	pelvis_list	pelvis_rotation	pelvis_tx	pelvis_ty	pelvis_tz	hip_flexion_r	hip_adduction_r	hip_rotation_r	knee_angle_r	ankle_angle_r	subtalar_angle_r	hip_flexion_l	hip_adduction_l	hip_rotation_l	knee_angle_l	ankle_angle_l	subtalar_angle_l	lumbar_extension	lumbar_bending	lumbar_rotation
      0.01000000	      5.71554715	     -3.08190789	      6.34468080	      1.19060597	      0.94460583	     -0.11145742	     -6.90702396	      4.81636651	    -11.50893413	     -7.41047054	      8.80321377	      0.96672362	     -4.16631748	     -3.98399135	    -11.00525779	    -14.05366288	     20.78206274	     -6.90576329	    -11.40611853	      3.28162865	     -8.33688426
      0.02000000	      5.71735132	     -3.08297385	      6.34831343	      1.19064984	      0.94460553	     -0.11148534	     -6.91138563	      4.81630685	    -11.50978553	     -7.41140998	      8.80803541	      0.96755521	     -4.16808571	     -3.98520384	    -11.00201631	    -14.05959057	     20.77707795	     -6.90677763	    -11.39922945	      3.28445635	     -8.33875045
      0.03000000	      5.71729689	     -3.08386106	      6.34849646	      1.19067013	      0.94460430	     -0.11150392	     -6.91190281	      4.81619072	    -11.51013294	     -7.41112451	      8.80866166	      0.96766540	     -4.16855374	     -3.98517187	    -11.00165775	    -14.06035145	     20.77662915	     -6.90685930	    -11.39869120	      3.28444432	     -8.33894197
      0.04000000	      5.72384940	     -3.08770916	      6.35692016	      1.19073475	      0.94460478	     -0.11154107	     -6.93349998	      4.82235170	    -11.53046764	     -7.38948695	      8.83673610	      0.97266178	     -4.17306783	     -3.99086141	    -10.99383107	    -14.07196891	     20.76641816	     -6.90854786	    -11.39010751	      3.29187964	     -8.34352735
      0.05000000	      5.72780329	     -3.08772441	      6.35704145	      1.19077723	      0.94460281	     -0.11156471	     -6.93880269	      4.82142223	    -11.53039765	     -7.39367775	      8.83783799	      0.97305619	     -4.17845902	     -3.99063661	    -10.99274840	    -14.07605483	     20.76719366	     -6.90828445	    -11.38229973	      3.29304794	     -8.34500695
      0.06000000	      5.73202878	     -3.08792471	      6.35397327	      1.19081911	      0.94459967	     -0.11158276	     -6.94493348	      4.82041450	    -11.53115619	     -7.39670851	      8.83938547	      0.97336944	     -4.18404380	     -3.99009701	    -10.99198919	    -14.08058679	     20.76843069	     -6.90794094	    -11.37373477	      3.29500765	     -8.34636288
      0.07000000	      5.73709964	     -3.08801964	      6.35013070	      1.19085884	      0.94459508	     -0.11160055	     -6.95150237	      4.81941825	    -11.53209097	     -7.39939745	      8.84167147	      0.97364704	     -4.19088028	     -3.98944886	    -10.99202805	    -14.08554134	     20.77033968	     -6.90752785	    -11.36425134	      3.29754972	     -8.34780766
      0.08000000	      5.74299804	     -3.08794836	      6.34563415	      1.19089594	      0.94458960	     -0.11161429	     -6.95869828	      4.81839165	    -11.53281616	     -7.40229905	      8.84468447	      0.97383030	     -4.19824538	     -3.98876469	    -10.99289919	    -14.09055586	     20.77286583	     -6.90709101	    -11.35430628	      3.30049886	     -8.34970283
      0.09000000	      5.74992393	     -3.08761649	      6.34062050	      1.19093020	      0.94458428	     -0.11162427	     -6.96602127	      4.81722143	    -11.53302345	     -7.40552672	      8.84874561	      0.97387078	     -4.20665135	     -3.98810788	    -10.99476989	    -14.09587261	     20.77619008	     -6.90663699	    -11.34430082	      3.30376310	     -8.35267464
      0.10000000	      5.79200633	     -3.08494586	      6.33101986	      1.19096328	      0.94461804	     -0.11162127	     -7.01273844	      4.81744025	    -11.53225422	     -7.40641536	      8.91500524	      0.97015519	     -4.25510401	     -3.99212553	    -11.03709035	    -14.10043004	     20.82425832	     -6.89997227	    -11.37890875	      3.30827671	     -8.35977040
